:SAMPLES-PER-SECOND 24
:FULLY-SPECIFIED
:DEGREES
455
root  1.91029 36.189 31.0676 -166.998 -72.2212 159.031
RightUpLeg  -17.3089 -12.7359 -24.2008
RightLeg  43.4668 5.64488 5.41636
RightFoot  -12.9767 0.0829145 11.8966
RightToes  -1.74623e-010 0 -2.59999e-017
Spine  11.6783 -3.02874 -12.3037
Spine1  14.8296 -7.44784 7.07887
HEad  -28.3529 -36.932 20.8061
LeftShoulder1  1.71744 -2.91298 -20.324
LeftArm  31.86 -26.1 -65.2911
LeftForeArm  74.1717 -79.4349 -82.4777
LeftHand  0.107833 6.90196 10.1879
RightShoulder  3.18105 5.53758 29.2589
RightArm  -9.71665 -4.39167 26.533
RightForeArm  0.857113 10.9932 11.5757
RightHand  -0.392878 -1.48538 -11.5316
LeftUpLeg  -3.8875 15.4401 11.8699
LeftLeg  42.868 -2.73687 -2.31364
LeftFoot  -18.8261 -1.03022 -17.4449
LeftToes  -6.27559e-011 -2.10356e-011 8.24929e-012
456
root  1.9829 35.3926 30.9424 -164.096 -76.3951 155.518
RightUpLeg  -17.3268 -15.126 -24.9335
RightLeg  48.8294 4.699 5.39937
RightFoot  -15.7285 0.357595 12.0673
RightToes  -1.74623e-010 0 -2.59999e-017
Spine  10.4426 -3.2091 -14.6464
Spine1  18.1729 -8.64954 8.43155
HEad  -30.3547 -37.7024 23.1775
LeftShoulder1  1.68847 -2.77821 -20.4496
LeftArm  31.773 -27.4656 -65.308
LeftForeArm  74.7624 -79.4882 -81.1597
LeftHand  0.139411 7.59106 8.86434
RightShoulder  3.57479 5.8644 32.272
RightArm  -5.06861 -9.85171 29.1223
RightForeArm  9.62736 13.4764 9.89389
RightHand  -0.346488 -1.39831 -10.0249
LeftUpLeg  -5.52955 14.1426 13.1657
LeftLeg  45.8887 -4.929 -4.99492
LeftFoot  -23.1 -1.6285 -17.0603
LeftToes  -6.27559e-011 -2.10356e-011 8.24929e-012
457
root  1.85728 35.7112 30.8601 -162.703 -80.1818 154.227
RightUpLeg  -13.986 -17.2693 -24.3689
RightLeg  46.2618 4.01308 4.17278
RightFoot  -15.0622 0.313953 12.7758
RightToes  -1.74623e-010 0 -2.59999e-017
Spine  8.87174 -3.7241 -15.2915
Spine1  20.3615 -9.73525 9.72706
HEad  -31.7235 -38.6396 24.8273
LeftShoulder1  1.81997 -2.95083 -21.8529
LeftArm  30.021 -22.3566 -62.2855
LeftForeArm  76.3813 -79.5474 -81.9508
LeftHand  0.123726 7.44036 8.60171
RightShoulder  3.85929 6.07641 34.3972
RightArm  -4.59849 -15.3957 32.5508
RightForeArm  11.8652 13.8255 9.65807
RightHand  -0.534963 -0.244686 -12.092
LeftUpLeg  -5.91021 12.2082 14.086
LeftLeg  44.3131 -5.91237 -5.72349
LeftFoot  -21.5147 -1.38704 -16.9184
LeftToes  -6.27559e-011 -2.10356e-011 8.24929e-012
458
root  1.55597 37.1624 30.8535 -166.241 -81.0627 158.015
RightUpLeg  -8.41262 -16.51 -22.9073
RightLeg  36.006 3.37488 2.38747
RightFoot  -9.99205 -0.245805 14.3795
RightToes  -1.74623e-010 0 -2.59999e-017
Spine  7.31051 -3.71486 -14.797
Spine1  20.4429 -9.61058 10.5072
HEad  -28.8625 -39.6506 24.1579
LeftShoulder1  1.9142 -3.03859 -22.9799
LeftArm  27.6702 -11.7555 -58.7228
LeftForeArm  72.0774 -79.3982 -78.6841
LeftHand  0.121077 7.2296 9.29917
RightShoulder  3.87445 6.10976 34.4147
RightArm  -7.78735 -19.5735 35.6275
RightForeArm  14.3625 10.7799 11.0839
RightHand  -0.377964 -0.208507 -8.11745
LeftUpLeg  -2.59605 11.0985 14.2824
LeftLeg  36.4812 -5.60466 -4.0677
LeftFoot  -15.0584 -0.485239 -17.6409
LeftToes  -6.27559e-011 -2.10356e-011 8.24929e-012
459
root  1.24838 38.9902 30.9416 -168.38 -79.5001 161.018
RightUpLeg  -4.02985 -14.2523 -21.9068
RightLeg  23.5803 3.04347 1.22587
RightFoot  0.71901 -1.75581 16.4237
RightToes  -1.74623e-010 0 -2.59999e-017
Spine  5.62598 -3.32443 -14.3306
Spine1  18.8376 -8.58535 10.9328
HEad  -23.9713 -40.5114 22.8165
LeftShoulder1  1.97752 -3.13016 -23.5584
LeftArm  25.1395 -0.233023 -55.2988
LeftForeArm  72.7175 -79.4328 -78.5687
LeftHand  0.125062 7.17894 9.7843
RightShoulder  3.83789 6.0875 34.1322
RightArm  -7.69909 -22.8221 36.1195
RightForeArm  16.9871 10.7326 10.9278
RightHand  0.0798303 -2.14177 4.31092
LeftUpLeg  1.47365 11.9878 13.5218
LeftLeg  26.3822 -5.11975 -2.39479
LeftFoot  -3.30856 1.28853 -17.9703
LeftToes  -6.27559e-011 -2.10356e-011 8.24929e-012
